<svg width="31" height="31" viewBox="0 0 31 31" fill="none" xmlns="http://www.w3.org/2000/svg">
<path d="M15.5 0.96875C12.6738 0.96875 9.96333 2.09146 7.96489 4.08989C5.96646 6.08833 4.84375 8.79879 4.84375 11.625C4.84375 17.2534 14.3375 29.1594 14.7444 29.6728C14.8351 29.786 14.9502 29.8773 15.081 29.94C15.2117 30.0028 15.3549 30.0353 15.5 30.0353C15.6451 30.0353 15.7883 30.0028 15.919 29.94C16.0498 29.8773 16.1649 29.786 16.2556 29.6728C16.6625 29.1594 26.1562 17.2534 26.1562 11.625C26.1562 8.79879 25.0335 6.08833 23.0351 4.08989C21.0367 2.09146 18.3262 0.96875 15.5 0.96875ZM15.5 27.4931C12.5066 23.6181 6.78125 15.3837 6.78125 11.625C6.78125 9.31264 7.69983 7.095 9.33491 5.45991C10.97 3.82483 13.1876 2.90625 15.5 2.90625C17.8124 2.90625 20.03 3.82483 21.6651 5.45991C23.3002 7.095 24.2188 9.31264 24.2188 11.625C24.2188 15.3837 18.4934 23.5987 15.5 27.4931Z" fill="#595959"/>
<path d="M15.5 4.84375C14.3504 4.84375 13.2266 5.18465 12.2708 5.82333C11.3149 6.46202 10.5699 7.36981 10.13 8.4319C9.69002 9.494 9.57491 10.6627 9.79919 11.7902C10.0235 12.9177 10.5771 13.9534 11.3899 14.7663C12.2028 15.5792 13.2385 16.1328 14.366 16.3571C15.4936 16.5813 16.6623 16.4662 17.7243 16.0263C18.7864 15.5864 19.6942 14.8414 20.3329 13.8855C20.9716 12.9296 21.3125 11.8059 21.3125 10.6562C21.3125 9.11468 20.7001 7.63625 19.6101 6.54619C18.52 5.45614 17.0416 4.84375 15.5 4.84375ZM15.5 14.5312C14.7336 14.5312 13.9844 14.304 13.3472 13.8782C12.7099 13.4524 12.2133 12.8472 11.92 12.1391C11.6267 11.4311 11.5499 10.652 11.6995 9.90027C11.849 9.1486 12.218 8.45814 12.76 7.91621C13.3019 7.37428 13.9924 7.00522 14.744 6.85571C15.4957 6.70619 16.2748 6.78293 16.9829 7.07622C17.691 7.36951 18.2962 7.86618 18.7219 8.50342C19.1477 9.14066 19.375 9.88985 19.375 10.6562C19.375 11.684 18.9667 12.6696 18.24 13.3963C17.5133 14.123 16.5277 14.5312 15.5 14.5312Z" fill="#595959"/>
</svg>
