<svg width="31" height="31" viewBox="0 0 31 31" fill="none" xmlns="http://www.w3.org/2000/svg">
<g clip-path="url(#clip0_7687_38)">
<path d="M22.7182 20.2758C22.4482 20.0048 22.1274 19.7899 21.7741 19.6432C21.4209 19.4965 21.0421 19.421 20.6596 19.421C20.2771 19.421 19.8984 19.4965 19.5451 19.6432C19.1919 19.7899 18.871 20.0048 18.601 20.2758L17.1964 21.6805C15.6148 20.6767 14.1495 19.5006 12.8273 18.1736C11.5031 16.8489 10.3272 15.3839 9.32042 13.8045L10.7251 12.3999C10.996 12.1298 11.211 11.809 11.3577 11.4558C11.5044 11.1025 11.5799 10.7238 11.5799 10.3413C11.5799 9.95875 11.5044 9.58001 11.3577 9.22675C11.211 8.87349 10.996 8.55266 10.7251 8.28266L7.98354 5.55079C7.71735 5.27895 7.39923 5.0634 7.04809 4.91695C6.69694 4.7705 6.31994 4.69614 5.93948 4.69829C5.55632 4.69735 5.17676 4.77219 4.82263 4.91849C4.46851 5.0648 4.14681 5.27968 3.87604 5.55079L2.55854 6.8586C1.93057 7.53379 1.46189 8.34112 1.18695 9.22126C0.912015 10.1014 0.83781 11.032 0.969792 11.9445C1.27979 15.5773 3.66292 19.9464 7.33448 23.6277C11.006 27.3089 15.4235 29.6824 19.0564 30.0311C19.3274 30.0456 19.599 30.0456 19.8701 30.0311C20.6521 30.0639 21.4328 29.9403 22.1664 29.6675C22.9 29.3947 23.5718 28.9782 24.1423 28.4424L25.4501 27.1249C25.7212 26.8541 25.9361 26.5324 26.0824 26.1783C26.2287 25.8241 26.3035 25.4446 26.3026 25.0614C26.3048 24.681 26.2304 24.304 26.0839 23.9528C25.9375 23.6017 25.7219 23.2835 25.4501 23.0174L22.7182 20.2758ZM24.0842 25.7589L22.7667 27.0667C22.2795 27.4727 21.7109 27.7693 21.0991 27.9364C20.4874 28.1036 19.8469 28.1374 19.221 28.0355C16.0726 27.7642 12.062 25.5361 8.74885 22.223C5.43573 18.9099 3.2076 14.9283 2.90729 11.7799C2.80282 11.154 2.83533 10.5128 3.00258 9.90073C3.16982 9.28861 3.46783 8.72004 3.87604 8.23423L5.24198 6.91672C5.3325 6.82694 5.43985 6.75591 5.55788 6.7077C5.67591 6.65949 5.8023 6.63505 5.92979 6.63579C6.05729 6.63505 6.18367 6.65949 6.3017 6.7077C6.41973 6.75591 6.52708 6.82694 6.6176 6.91672L9.35917 9.68735C9.5396 9.86886 9.64087 10.1144 9.64087 10.3703C9.64087 10.6262 9.5396 10.8718 9.35917 11.0533L7.42167 12.9908C7.27006 13.1417 7.17263 13.3385 7.1446 13.5505C7.11656 13.7625 7.15948 13.9779 7.26667 14.163C8.42664 16.1377 9.8365 17.9546 11.4614 19.5686C13.0754 21.1935 14.8922 22.6033 16.867 23.7633C17.0521 23.8705 17.2674 23.9134 17.4795 23.8854C17.6915 23.8573 17.8883 23.7599 18.0392 23.6083L19.9767 21.6708C20.1582 21.4904 20.4037 21.3891 20.6596 21.3891C20.9156 21.3891 21.1611 21.4904 21.3426 21.6708L24.0842 24.4124C24.174 24.5029 24.245 24.6102 24.2932 24.7283C24.3414 24.8463 24.3658 24.9727 24.3651 25.1002C24.359 25.3476 24.2585 25.5833 24.0842 25.7589Z" fill="#595959"/>
<path d="M25.7688 5.22159C24.4224 3.87016 22.8219 2.79859 21.0595 2.06868C19.2971 1.33877 17.4076 0.964951 15.5 0.968779C15.2431 0.968779 14.9967 1.07084 14.815 1.25252C14.6333 1.4342 14.5312 1.6806 14.5312 1.93753C14.5312 2.19446 14.6333 2.44086 14.815 2.62254C14.9967 2.80421 15.2431 2.90628 15.5 2.90628C17.1628 2.90622 18.8092 3.23546 20.3442 3.87501C21.8791 4.51456 23.2722 5.45175 24.443 6.6325C25.6139 7.81325 26.5393 9.21418 27.1659 10.7544C27.7925 12.2947 28.1078 13.9438 28.0938 15.6066C28.0938 15.8635 28.1958 16.1099 28.3775 16.2916C28.5592 16.4733 28.8056 16.5753 29.0625 16.5753C29.3194 16.5753 29.5658 16.4733 29.7475 16.2916C29.9292 16.1099 30.0312 15.8635 30.0312 15.6066C30.0498 13.6787 29.6822 11.7666 28.9502 9.98306C28.2181 8.19949 27.1364 6.58052 25.7688 5.22159Z" fill="#595959"/>
<path d="M20.2541 10.7624C20.8038 11.3088 21.2388 11.9597 21.5332 12.6768C21.8277 13.3939 21.9758 14.1626 21.9687 14.9377C21.9687 15.1946 22.0708 15.441 22.2525 15.6227C22.4342 15.8044 22.6806 15.9064 22.9375 15.9064C23.1944 15.9064 23.4408 15.8044 23.6225 15.6227C23.8042 15.441 23.9062 15.1946 23.9062 14.9377C23.9191 13.9118 23.7281 12.8936 23.3444 11.9421C22.9606 10.9907 22.3918 10.1248 21.6709 9.39489C20.9499 8.66494 20.0912 8.0854 19.1446 7.68988C18.1979 7.29436 17.1822 7.09074 16.1562 7.09082C15.8993 7.09082 15.6529 7.19288 15.4712 7.37456C15.2896 7.55624 15.1875 7.80264 15.1875 8.05957C15.1875 8.3165 15.2896 8.5629 15.4712 8.74458C15.6529 8.92626 15.8993 9.02832 16.1562 9.02832C16.9197 9.03407 17.6745 9.19017 18.3777 9.48771C19.0808 9.78524 19.7184 10.2184 20.2541 10.7624Z" fill="#595959"/>
</g>
<defs>
<clipPath id="clip0_7687_38">
<rect width="31" height="31" fill="white"/>
</clipPath>
</defs>
</svg>
