<svg width="31" height="31" viewBox="0 0 31 31" fill="none" xmlns="http://www.w3.org/2000/svg">
<path d="M15.5 31C24.0604 31 31 24.0604 31 15.5C31 6.93959 24.0604 0 15.5 0C6.93959 0 0 6.93959 0 15.5C0 24.0604 6.93959 31 15.5 31Z" fill="#665CAC"/>
<path d="M17.1299 7.34204H13.8668C12.3523 7.34204 10.8998 7.94368 9.82883 9.01462C8.75789 10.0855 8.15625 11.538 8.15625 13.0526V15.4999C8.1558 16.581 8.46221 17.64 9.03986 18.5537C9.61751 19.4675 10.4427 20.1985 11.4194 20.6618V23.3886C11.4204 23.4418 11.4369 23.4936 11.4668 23.5375C11.4968 23.5815 11.5389 23.6158 11.5881 23.6361C11.6373 23.6565 11.6913 23.662 11.7436 23.6521C11.7958 23.6422 11.8441 23.6173 11.8824 23.5803L14.2522 21.2105H17.1299C18.6445 21.2105 20.097 20.6088 21.1679 19.5379C22.2388 18.467 22.8405 17.0145 22.8405 15.4999V13.0526C22.8405 11.538 22.2388 10.0855 21.1679 9.01462C20.097 7.94368 18.6445 7.34204 17.1299 7.34204ZM19.2673 18.0452L18.4515 18.861C17.5827 19.7114 15.3148 18.7407 13.3161 16.6991C11.3174 14.6576 10.4405 12.3673 11.2766 11.5168L12.0924 10.7011C12.2523 10.5575 12.4602 10.4792 12.675 10.4814C12.8899 10.4837 13.0961 10.5664 13.2529 10.7133L14.4439 11.937C14.5385 12.0346 14.6068 12.1547 14.6422 12.2859C14.6776 12.4171 14.6791 12.5552 14.6464 12.6872C14.6138 12.8191 14.5481 12.9406 14.4556 13.0402C14.3631 13.1398 14.2468 13.2142 14.1176 13.2565C13.9261 13.3153 13.7646 13.4455 13.6667 13.6202C13.5687 13.7949 13.5417 14.0006 13.5914 14.1947C13.7954 15.1002 14.9457 16.2341 15.8022 16.4564C15.9954 16.5025 16.1986 16.4765 16.3739 16.3834C16.5493 16.2903 16.6846 16.1364 16.7547 15.9507C16.7999 15.8211 16.8777 15.7054 16.9807 15.6146C17.0836 15.5238 17.2081 15.4611 17.3423 15.4324C17.4765 15.4037 17.6159 15.4101 17.7469 15.4508C17.8779 15.4916 17.9963 15.5654 18.0905 15.6651L19.2795 16.8888C19.4223 17.0482 19.5003 17.2554 19.498 17.4694C19.4958 17.6834 19.4134 17.8888 19.2673 18.0452ZM16.2407 11.217C16.1596 11.2167 16.0785 11.2214 15.998 11.2313C15.9625 11.2352 15.9266 11.2321 15.8924 11.2221C15.8581 11.2121 15.8261 11.1954 15.7983 11.1731C15.7704 11.1507 15.7473 11.1231 15.7301 11.0918C15.7129 11.0605 15.7021 11.0261 15.6982 10.9907C15.6943 10.9552 15.6975 10.9193 15.7075 10.885C15.7175 10.8507 15.7341 10.8188 15.7565 10.7909C15.7788 10.7631 15.8064 10.7399 15.8377 10.7227C15.869 10.7056 15.9034 10.6947 15.9389 10.6909C16.0391 10.6793 16.1399 10.6739 16.2407 10.6745C16.9625 10.674 17.6549 10.9601 18.1658 11.4698C18.6768 11.9796 18.9644 12.6714 18.9655 13.3932C18.9661 13.494 18.9607 13.5948 18.9491 13.695C18.9453 13.7305 18.9344 13.7649 18.9173 13.7962C18.9001 13.8275 18.8769 13.8551 18.8491 13.8774C18.8212 13.8998 18.7893 13.9164 18.755 13.9264C18.7207 13.9364 18.6848 13.9395 18.6493 13.9357C18.6139 13.9318 18.5795 13.9209 18.5482 13.9038C18.5169 13.8866 18.4893 13.8634 18.4669 13.8356C18.4446 13.8078 18.4279 13.7758 18.4179 13.7415C18.4079 13.7072 18.4048 13.6713 18.4087 13.6359C18.4176 13.5553 18.4223 13.4742 18.423 13.3932C18.4219 12.8153 18.1914 12.2615 17.7822 11.8534C17.373 11.4454 16.8186 11.2165 16.2407 11.217ZM17.8723 13.3932C17.8664 13.4613 17.8352 13.5248 17.7847 13.571C17.7343 13.6172 17.6684 13.6429 17.6 13.6429C17.5316 13.6429 17.4657 13.6172 17.4153 13.571C17.3649 13.5248 17.3337 13.4613 17.3278 13.3932C17.3278 13.1049 17.2132 12.8284 17.0094 12.6245C16.8055 12.4206 16.529 12.3061 16.2407 12.3061C16.203 12.3094 16.165 12.3048 16.1291 12.2926C16.0933 12.2804 16.0603 12.2609 16.0324 12.2353C16.0045 12.2097 15.9822 12.1785 15.967 12.1439C15.9517 12.1092 15.9438 12.0717 15.9438 12.0339C15.9438 11.996 15.9517 11.9585 15.967 11.9238C15.9822 11.8892 16.0045 11.858 16.0324 11.8324C16.0603 11.8068 16.0933 11.7873 16.1291 11.7751C16.165 11.7629 16.203 11.7583 16.2407 11.7616C16.6734 11.7616 17.0884 11.9335 17.3944 12.2395C17.7004 12.5454 17.8723 12.9604 17.8723 13.3932ZM19.9464 14.2763C19.9404 14.3133 19.9268 14.3488 19.9065 14.3803C19.8861 14.4119 19.8595 14.439 19.8282 14.4598C19.797 14.4806 19.7618 14.4948 19.7248 14.5014C19.6878 14.508 19.6499 14.5069 19.6133 14.4982C19.5768 14.4895 19.5424 14.4733 19.5124 14.4508C19.4824 14.4282 19.4573 14.3996 19.4389 14.3669C19.4204 14.3343 19.4088 14.2981 19.4049 14.2607C19.401 14.2234 19.4048 14.1856 19.4162 14.1498C19.4751 13.9033 19.5045 13.6507 19.5039 13.3972C19.5039 12.5318 19.1601 11.7018 18.5481 11.0898C17.9362 10.4779 17.1062 10.1341 16.2407 10.1341C16.1571 10.1341 16.0714 10.1341 15.9878 10.1341C15.9522 10.1368 15.9164 10.1324 15.8825 10.1212C15.8485 10.1101 15.8171 10.0923 15.7901 10.0691C15.7354 10.022 15.7016 9.95516 15.6962 9.88322C15.6908 9.81128 15.7142 9.74014 15.7612 9.68545C15.8083 9.63075 15.8751 9.59699 15.947 9.59158C16.0449 9.58342 16.1428 9.57934 16.2407 9.57934C17.2512 9.58096 18.2196 9.98349 18.9335 10.6985C19.6475 11.4136 20.0484 12.3827 20.0484 13.3932C20.0485 13.6905 20.0143 13.9868 19.9464 14.2763Z" fill="white"/>
</svg>
