<svg width="38" height="38" viewBox="0 0 38 38" fill="none" xmlns="http://www.w3.org/2000/svg">
<g clip-path="url(#clip0_7704_5)">
<path d="M19 38C29.4934 38 38 29.4934 38 19C38 8.50659 29.4934 0 19 0C8.50659 0 0 8.50659 0 19C0 29.4934 8.50659 38 19 38Z" fill="#4065D6"/>
<path d="M27.76 24.4298C27.315 24.4923 25.1525 24.4298 25.04 24.4298C24.4809 24.4354 23.9421 24.2208 23.54 23.8323C23.0825 23.3923 22.67 22.9073 22.2325 22.4498C22.0997 22.3103 21.9568 22.1808 21.805 22.0623C21.4475 21.7898 21.095 21.8523 20.9275 22.2723C20.7963 22.7275 20.706 23.1935 20.6575 23.6648C20.6497 23.8633 20.5634 24.0506 20.4177 24.1856C20.2719 24.3206 20.0785 24.3922 19.88 24.3848C19.585 24.3998 19.29 24.4073 18.9975 24.3998C17.9335 24.3942 16.8858 24.1372 15.94 23.6498C14.919 23.0792 14.029 22.3007 13.3275 21.3648C12.2052 19.8828 11.2353 18.2914 10.4325 16.6148C10.39 16.5298 9.54751 14.7373 9.52751 14.6548C9.47528 14.5373 9.47029 14.4042 9.51359 14.2832C9.55688 14.1621 9.64513 14.0624 9.76001 14.0048C9.91001 13.9473 12.6875 14.0048 12.7325 14.0048C12.9393 14.0028 13.1414 14.067 13.3091 14.188C13.4769 14.3089 13.6016 14.4804 13.665 14.6773C14.1787 15.9868 14.8802 17.2147 15.7475 18.3223C15.8685 18.4715 16.0109 18.6021 16.17 18.7098C16.211 18.7493 16.2619 18.7773 16.3173 18.7906C16.3727 18.804 16.4307 18.8023 16.4853 18.7857C16.5398 18.7691 16.5889 18.7383 16.6276 18.6964C16.6662 18.6545 16.6929 18.603 16.705 18.5473C16.8149 18.1858 16.8795 17.8121 16.8975 17.4348C16.9125 16.6848 16.8975 16.1848 16.855 15.4348C16.8701 15.1792 16.7838 14.9279 16.6149 14.7356C16.4459 14.5432 16.2079 14.4252 15.9525 14.4073C15.7325 14.3698 15.7025 14.1898 15.855 14.0098C16.1475 13.6373 16.5525 13.5773 16.9925 13.5548C17.6575 13.5173 18.325 13.5548 18.9925 13.5548H19.1375C19.4306 13.554 19.7229 13.5833 20.01 13.6423C20.1779 13.6766 20.3301 13.7643 20.4441 13.8923C20.5581 14.0202 20.6277 14.1815 20.6425 14.3523C20.6762 14.5412 20.6913 14.7329 20.6875 14.9248C20.67 15.7423 20.63 16.5598 20.62 17.3798C20.614 17.7036 20.6434 18.0272 20.7075 18.3448C20.805 18.7798 21.1025 18.8898 21.4075 18.5723C21.7876 18.1643 22.1361 17.728 22.45 17.2673C23.0145 16.4282 23.4793 15.5263 23.835 14.5798C24.0275 14.0948 24.175 13.9873 24.6975 13.9873H27.645C27.8209 13.9843 27.9962 14.0079 28.165 14.0573C28.2246 14.0731 28.2803 14.1011 28.3286 14.1394C28.3769 14.1777 28.4169 14.2256 28.4459 14.2799C28.475 14.3343 28.4926 14.3941 28.4976 14.4556C28.5026 14.517 28.4949 14.5789 28.475 14.6373C28.3027 15.2644 28.0069 15.8509 27.605 16.3623C27.005 17.2098 26.375 18.0373 25.76 18.8623C25.6822 18.9702 25.6112 19.0829 25.5475 19.1998C25.3175 19.6148 25.335 19.8498 25.6675 20.1998C26.2025 20.7498 26.775 21.2673 27.29 21.8323C27.6698 22.244 28.0128 22.6882 28.315 23.1598C28.695 23.7698 28.4625 24.3298 27.76 24.4298Z" fill="white"/>
</g>
<defs>
<clipPath id="clip0_7704_5">
<rect width="38" height="38" fill="white"/>
</clipPath>
</defs>
</svg>
