<svg width="31" height="31" viewBox="0 0 31 31" fill="none" xmlns="http://www.w3.org/2000/svg">
<path d="M15.5 31C24.0604 31 31 24.0604 31 15.5C31 6.93959 24.0604 0 15.5 0C6.93959 0 0 6.93959 0 15.5C0 24.0604 6.93959 31 15.5 31Z" fill="#2AA81A"/>
<path d="M20.9687 10.0322C19.6789 8.72783 17.9652 7.92754 16.1371 7.77585C14.309 7.62417 12.4869 8.13108 10.9997 9.20507C9.51261 10.2791 8.45846 11.8493 8.0276 13.6324C7.59675 15.4155 7.81758 17.2939 8.65025 18.9284L7.83446 22.8891C7.82572 22.9286 7.82538 22.9696 7.83346 23.0093C7.84154 23.049 7.85786 23.0865 7.88136 23.1195C7.91502 23.1695 7.96313 23.208 8.01926 23.2298C8.07539 23.2517 8.13686 23.2559 8.19544 23.2419L12.0704 22.3221C13.7005 23.1329 15.5654 23.339 17.3332 22.9038C19.1009 22.4685 20.6569 21.42 21.7241 19.945C22.7913 18.47 23.3005 16.6642 23.161 14.849C23.0216 13.0337 22.2425 11.3269 20.9625 10.0322H20.9687ZM19.7572 19.6932C18.8652 20.5837 17.7165 21.1721 16.4727 21.3759C15.2289 21.5797 13.9525 21.3885 12.823 20.8292L12.2805 20.56L9.90044 21.1229V21.0923L10.4022 18.6918L10.137 18.1697C9.55949 17.0371 9.35557 15.7507 9.55453 14.4951C9.75348 13.2394 10.3451 12.079 11.2445 11.1804C12.3737 10.0524 13.9046 9.41869 15.5008 9.41869C17.097 9.41869 18.628 10.0524 19.7572 11.1804L19.7837 11.2172C20.8983 12.3488 21.5205 13.8751 21.5148 15.4635C21.5091 17.0519 20.8759 18.5737 19.7531 19.6973L19.7572 19.6932Z" fill="white"/>
<path d="M19.5493 17.9474C19.2576 18.4062 18.7947 18.9671 18.2175 19.1078C17.1978 19.3526 15.6457 19.1078 13.7021 17.311L13.6776 17.2886C11.9869 15.7101 11.5382 14.3946 11.6382 13.3524C11.6973 12.7589 12.1909 12.2246 12.6069 11.8738C12.6731 11.818 12.7513 11.7785 12.8355 11.7584C12.9197 11.7383 13.0073 11.7381 13.0916 11.7579C13.1758 11.7777 13.2542 11.817 13.3206 11.8725C13.3869 11.928 13.4394 11.9983 13.4737 12.0777L14.0998 13.4931C14.1407 13.5843 14.156 13.6848 14.1442 13.7839C14.1323 13.8831 14.0937 13.9771 14.0325 14.056L13.7144 14.4639C13.6482 14.5486 13.6088 14.6511 13.6012 14.7582C13.5936 14.8654 13.6181 14.9724 13.6715 15.0656C13.9737 15.511 14.3353 15.9131 14.7463 16.2607C15.1885 16.6863 15.69 17.0455 16.2351 17.3274C16.3346 17.3675 16.4438 17.377 16.5488 17.3549C16.6538 17.3327 16.7497 17.2798 16.8246 17.2029L17.1896 16.8318C17.2591 16.7571 17.3479 16.703 17.4461 16.6757C17.5444 16.6483 17.6483 16.6487 17.7464 16.6768L19.2352 17.103C19.3196 17.127 19.3971 17.1705 19.4615 17.2301C19.5259 17.2896 19.5754 17.3635 19.606 17.4457C19.6366 17.5279 19.6474 17.6161 19.6375 17.7033C19.6277 17.7904 19.5975 17.8741 19.5493 17.9474Z" fill="white"/>
</svg>
